<svg xmlns="http://www.w3.org/2000/svg" viewBox="0 0 636 204.53"><defs><style>.cls-1{isolation:isolate;}.cls-2{mix-blend-mode:multiply;opacity:0.18;}.cls-3{fill:#675aa6;}.cls-4{fill:#564896;}.cls-5{fill:#26213d;}.cls-6{fill:#fff;}.cls-7{fill:#00e0ac;}.cls-8{fill:#ffc209;}</style></defs><g class="cls-1"><g id="Layer_2" data-name="Layer 2"><g id="TEXTS"><g class="cls-2"><path d="M59.84,40.65,18.3,112.59c-23.59,40.86,5.9,91.94,53.08,91.94h83.08c47.18,0,76.67-51.08,53.08-91.94L166,40.65C142.41-.22,83.43-.22,59.84,40.65Z"/><path d="M166,40.65c-.82-1.42-1.68-2.78-2.58-4.1C149.17,70.61,109.43,140.61,16,169.41a60.84,60.84,0,0,0,55.41,35.12h83.08c47.18,0,76.67-51.08,53.08-91.94Z"/><circle cx="112.92" cy="119.36" r="39.07" transform="translate(-51.33 114.81) rotate(-45)"/><circle cx="112.92" cy="73.95" r="14.89"/><path d="M71.73,89.12A13.5,13.5,0,0,1,60.06,68.87l11.19-19.4a48.12,48.12,0,0,1,83.34,0l11.19,19.4a13.5,13.5,0,0,1-23.38,13.5L131.2,63a21.11,21.11,0,0,0-36.56,0l-11.2,19.4A13.5,13.5,0,0,1,71.73,89.12Z"/><path d="M66.24,129a14.89,14.89,0,1,1-5.45,20.34A14.89,14.89,0,0,1,66.24,129Z"/><path d="M95.71,190.23H73.32a48.12,48.12,0,0,1-41.67-72.17l11.2-19.39a13.5,13.5,0,1,1,23.38,13.5L55,131.56a21.12,21.12,0,0,0,18.28,31.67H95.71a13.5,13.5,0,1,1,0,27Z"/><path d="M144.71,154.8a14.89,14.89,0,1,1,20.34-5.45A14.89,14.89,0,0,1,144.71,154.8Z"/><path d="M152.52,190.23h-22.4a13.5,13.5,0,0,1,0-27h22.4a21.12,21.12,0,0,0,18.28-31.67l-11.2-19.39A13.5,13.5,0,1,1,183,98.67l11.19,19.39a48.12,48.12,0,0,1-41.66,72.17Z"/></g><path class="cls-3" d="M49.84,30.65,8.3,102.59c-23.59,40.86,5.9,91.94,53.08,91.94h83.08c47.18,0,76.67-51.08,53.08-91.94L156,30.65C132.41-10.22,73.43-10.22,49.84,30.65Z"/><path class="cls-4" d="M156,30.65c-.82-1.42-1.68-2.78-2.58-4.1C139.17,60.61,99.43,130.61,6,159.41a60.84,60.84,0,0,0,55.41,35.12h83.08c47.18,0,76.67-51.08,53.08-91.94Z"/><circle class="cls-5" cx="102.92" cy="109.36" r="39.07" transform="translate(-47.19 104.81) rotate(-45)"/><circle class="cls-6" cx="102.92" cy="63.95" r="14.89"/><path class="cls-6" d="M61.73,79.12A13.5,13.5,0,0,1,50.06,58.87l11.19-19.4a48.12,48.12,0,0,1,83.34,0l11.19,19.4a13.5,13.5,0,0,1-23.38,13.5L121.2,53a21.11,21.11,0,0,0-36.56,0l-11.2,19.4A13.5,13.5,0,0,1,61.73,79.12Z"/><path class="cls-7" d="M56.24,119a14.89,14.89,0,1,1-5.45,20.34A14.89,14.89,0,0,1,56.24,119Z"/><path class="cls-7" d="M85.71,180.23H63.32a48.12,48.12,0,0,1-41.67-72.17l11.2-19.39a13.5,13.5,0,1,1,23.38,13.5L45,121.56a21.12,21.12,0,0,0,18.28,31.67H85.71a13.5,13.5,0,1,1,0,27Z"/><path class="cls-8" d="M134.71,144.8a14.89,14.89,0,1,1,20.34-5.45A14.89,14.89,0,0,1,134.71,144.8Z"/><path class="cls-8" d="M142.52,180.23h-22.4a13.5,13.5,0,0,1,0-27h22.4a21.12,21.12,0,0,0,18.28-31.67l-11.2-19.39A13.5,13.5,0,1,1,173,88.67l11.19,19.39a48.12,48.12,0,0,1-41.66,72.17Z"/><path class="cls-7" d="M271.2,135.9V75.42H249.48V58.62h66v16.8H293.76V135.9Z"/><path class="cls-7" d="M327.48,135.9V58.62H386V75.9H350V88.5H381.6V106H350v12.6h36V135.9Z"/><path class="cls-7" d="M399.24,135.9V58.62H421.8V85.86l23.4-27.24h25.68L443.64,90.3l29.16,45.6h-24l-19.08-31.2-7.92,8.88V135.9Z"/><path class="cls-7" d="M519.24,137.1q-20.64,0-31.44-10.14T477,98q0-19.44,11.16-30T520.8,57.42a91.69,91.69,0,0,1,13,.84,65.76,65.76,0,0,1,11,2.52V80.1a46.54,46.54,0,0,0-10.92-2.76,90.89,90.89,0,0,0-11.52-.72q-11.16,0-16.74,5T500,98q0,10.56,4.86,15.24t14.34,4.68a39.11,39.11,0,0,0,5.88-.42,37.69,37.69,0,0,0,5.16-1.14V105.06H514.92V91.14h34.2V130a48.43,48.43,0,0,1-11.82,4.92A65.08,65.08,0,0,1,519.24,137.1Z"/><path class="cls-7" d="M599.52,137.1a47.73,47.73,0,0,1-19-3.54,29.05,29.05,0,0,1-12.9-10.44q-4.68-6.9-4.68-17V58.62h22.56v45.12q0,14.16,14,14.16,6.72,0,10.32-3.48t3.6-10.68V58.62H636v47.52q0,10.08-4.62,17a28.67,28.67,0,0,1-12.84,10.44A47.73,47.73,0,0,1,599.52,137.1Z"/></g></g></g></svg>